grf
version=1
nRows=23
nColumns=28
inDegrees=yes
endheader
time	ground_force_1_vx	ground_force_1_vy	ground_force_1_vz	ground_force_1_px	ground_force_1_py	ground_force_1_pz	ground_moment_1_mx	ground_moment_1_my	ground_moment_1_mz	ground_force_2_vx	ground_force_2_vy	ground_force_2_vz	ground_force_2_px	ground_force_2_py	ground_force_2_pz	ground_moment_2_mx	ground_moment_2_my	ground_moment_2_mz	ground_force_3_vx	ground_force_3_vy	ground_force_3_vz	ground_force_3_px	ground_force_3_py	ground_force_3_pz	ground_moment_3_mx	ground_moment_3_my	ground_moment_3_mz
1.105000	0.000000	0.000000	0.000000	-0.263125	0.000000	-0.456275	0.000000	0.000000	0.000000	0.000000	0.000000	0.000000	0.553598	0.000000	-0.183685	0.000000	0.000000	0.000000	0.000000	0.000000	0.000000	1.245088	0.000000	-0.320465	0.000000	0.000000	0.000000
1.105833	0.000000	0.000000	0.000000	-0.210831	0.000000	-0.178713	0.000000	0.000000	0.000000	0.000000	0.000000	0.000000	0.484107	0.000000	-0.047939	0.000000	0.000000	0.000000	0.000000	0.000000	0.000000	1.343869	0.000000	-0.042435	0.000000	0.000000	0.000000
1.106667	0.000000	0.000000	0.000000	0.145720	0.000000	-2.620248	0.000000	0.000000	0.000000	0.000000	0.000000	0.000000	0.115711	0.000000	-0.080627	0.000000	0.000000	0.000000	0.000000	0.000000	0.000000	1.267980	-0.000000	0.080661	0.000000	0.000000	0.000000
1.107500	0.000000	0.000000	0.000000	0.075938	0.000000	-0.385775	0.000000	0.000000	0.000000	0.000000	0.000000	0.000000	0.015741	0.000000	-0.372348	0.000000	0.000000	0.000000	0.000000	0.000000	0.000000	0.747818	0.000000	-0.411268	0.000000	0.000000	0.000000
1.108333	0.000000	0.000000	0.000000	-0.146546	0.000000	-0.178773	0.000000	0.000000	0.000000	0.000000	0.000000	0.000000	0.150518	0.000000	-0.282449	0.000000	0.000000	0.000000	0.000000	0.000000	0.000000	0.994055	0.000000	-0.604837	0.000000	0.000000	0.000000
1.109167	0.000000	0.000000	0.000000	-1.563240	0.000000	-1.388737	0.000000	0.000000	0.000000	0.000000	0.000000	0.000000	0.228693	0.000000	-0.058799	0.000000	0.000000	0.000000	0.000000	0.000000	0.000000	0.859016	0.000000	-0.385206	0.000000	0.000000	0.000000
1.110000	0.000000	0.000000	0.000000	-0.283140	0.000000	-0.412753	0.000000	0.000000	0.000000	0.000000	0.000000	0.000000	0.395754	0.000000	-0.415106	0.000000	0.000000	0.000000	0.000000	0.000000	0.000000	0.949387	0.000000	-0.534981	0.000000	0.000000	0.000000
1.110833	0.000000	0.000000	0.000000	-0.467721	0.000000	-0.045811	0.000000	0.000000	0.000000	0.000000	0.000000	0.000000	0.278876	0.000000	-0.087819	0.000000	0.000000	0.000000	0.000000	0.000000	0.000000	0.987794	0.000000	-0.503878	0.000000	0.000000	0.000000
1.111667	0.000000	0.000000	0.000000	-0.004276	0.000000	-0.967979	0.000000	0.000000	0.000000	0.000000	0.000000	0.000000	0.516792	0.000000	-1.381919	0.000000	0.000000	0.000000	0.000000	0.000000	0.000000	0.810272	0.000000	-0.364071	0.000000	0.000000	0.000000
1.112500	0.000000	0.000000	0.000000	0.001354	0.000000	-0.394336	0.000000	0.000000	0.000000	0.000000	0.000000	0.000000	-1.683027	0.000000	-0.012530	0.000000	0.000000	0.000000	0.000000	0.000000	0.000000	0.825203	0.000000	-0.361184	0.000000	0.000000	0.000000
1.113333	0.000000	0.000000	0.000000	0.509017	0.000000	-0.936306	0.000000	0.000000	0.000000	0.000000	0.000000	0.000000	-4.945009	-0.000000	1.165463	0.000000	0.000000	0.000000	0.000000	0.000000	0.000000	1.110778	0.000000	-0.609214	0.000000	0.000000	0.000000
1.114167	0.000000	0.000000	0.000000	-9.573389	-0.000000	2.206617	0.000000	0.000000	0.000000	0.000000	0.000000	0.000000	0.263471	0.000000	-0.097126	0.000000	0.000000	0.000000	0.000000	0.000000	0.000000	1.014280	0.000000	-0.318837	0.000000	0.000000	0.000000
1.115000	0.000000	0.000000	0.000000	-0.220834	0.000000	-0.376385	0.000000	0.000000	0.000000	0.000000	0.000000	0.000000	0.240822	0.000000	-0.127102	0.000000	0.000000	0.000000	0.000000	0.000000	0.000000	0.939659	0.000000	-3.815057	0.000000	0.000000	0.000000
1.115833	0.000000	0.000000	0.000000	0.275746	0.000000	-0.213418	0.000000	0.000000	0.000000	0.000000	0.000000	0.000000	0.260912	0.000000	-0.270581	0.000000	0.000000	0.000000	0.000000	0.000000	0.000000	1.143701	0.000000	-0.332436	0.000000	0.000000	0.000000
1.116667	0.000000	0.000000	0.000000	-0.211255	0.000000	-0.388469	0.000000	0.000000	0.000000	0.000000	0.000000	0.000000	0.174904	0.000000	-0.471613	0.000000	0.000000	0.000000	0.000000	0.000000	0.000000	1.066502	0.000000	-0.696439	0.000000	0.000000	0.000000
1.117500	0.000000	0.000000	0.000000	-0.238116	0.000000	-0.488720	0.000000	0.000000	0.000000	0.000000	0.000000	0.000000	-1.041340	0.000000	-0.564529	0.000000	0.000000	0.000000	0.000000	0.000000	0.000000	0.900377	0.000000	-0.566803	0.000000	0.000000	0.000000
1.118333	0.000000	0.000000	0.000000	-0.042139	0.000000	-0.169535	0.000000	0.000000	0.000000	0.000000	0.000000	0.000000	-0.863743	0.000000	-0.075459	0.000000	0.000000	0.000000	0.000000	0.000000	0.000000	1.001596	0.000000	-0.627586	0.000000	0.000000	0.000000
1.119167	0.000000	0.000000	0.000000	10.312554	-0.000000	19.068846	0.000000	0.000000	0.000000	0.000000	0.000000	0.000000	0.428886	0.000000	-0.190495	0.000000	0.000000	0.000000	0.000000	0.000000	0.000000	1.002510	0.000000	-0.398817	0.000000	0.000000	0.000000
1.120000	0.000000	0.000000	0.000000	0.273506	-0.000000	0.337420	0.000000	0.000000	0.000000	0.000000	0.000000	0.000000	0.216932	0.000000	-0.236492	0.000000	0.000000	0.000000	0.000000	0.000000	0.000000	2.922047	-0.000000	0.003135	0.000000	0.000000	0.000000
1.120833	0.000000	0.000000	0.000000	-0.298778	0.000000	-0.416645	0.000000	0.000000	0.000000	0.000000	0.000000	0.000000	0.167302	0.000000	-0.201172	0.000000	0.000000	0.000000	0.000000	0.000000	0.000000	0.824856	0.000000	-0.167953	0.000000	0.000000	0.000000
1.121667	0.000000	0.000000	0.000000	34.471056	0.000000	-385.281751	0.000000	0.000000	0.000000	0.000000	0.000000	0.000000	0.234729	-0.000000	0.306285	0.000000	0.000000	0.000000	0.000000	0.000000	0.000000	0.528725	-0.000000	3.718068	0.000000	0.000000	0.000000
1.122500	0.000000	0.000000	0.000000	-4.365395	0.000000	-15.814393	0.000000	0.000000	0.000000	0.000000	0.000000	0.000000	-0.403726	-0.000000	2.083344	0.000000	0.000000	0.000000	0.000000	0.000000	0.000000	-0.378216	0.000000	-0.207335	0.000000	0.000000	0.000000
1.123333	0.000000	0.000000	0.000000	-0.486060	0.000000	-2.825780	0.000000	0.000000	0.000000	0.000000	0.000000	0.000000	0.771431	0.000000	-0.651947	0.000000	0.000000	0.000000	0.000000	0.000000	0.000000	0.511399	0.000000	-0.089461	0.000000	0.000000	0.000000
